<?xml version="1.0" encoding="utf-8"?>
<!-- Generator: Adobe Illustrator 25.0.0, SVG Export Plug-In . SVG Version: 6.00 Build 0)  -->
<svg version="1.1" id="Rectangle_2_1_" xmlns="http://www.w3.org/2000/svg" xmlns:xlink="http://www.w3.org/1999/xlink" x="0px"
	 y="0px" viewBox="0 0 50 50" enable-background="new 0 0 50 50" xml:space="preserve">
<g>
	<g>
		<path fill-rule="evenodd" clip-rule="evenodd" d="M15.28,0.743L0.657,15.194v34.063H34.72l14.623-14.623V0.743H15.28z
			 M15.968,2.464h30.451L33.516,15.194H3.065L15.968,2.464z M47.623,33.947L34.72,46.849V16.399L47.623,3.668V33.947z M5.322,39.977
			c-0.925,0-1.676-0.32-2.257-0.96L3.77,37.99c0.465,0.465,0.989,0.698,1.574,0.698c0.174,0,0.322-0.037,0.442-0.109
			c0.12-0.072,0.181-0.171,0.181-0.296c0-0.174-0.15-0.317-0.45-0.427l-0.495-0.165c-0.355-0.13-0.589-0.225-0.704-0.285
			c-0.61-0.325-0.915-0.805-0.915-1.44c0-0.489,0.192-0.897,0.578-1.221c0.385-0.325,0.88-0.487,1.484-0.487
			c0.755,0,1.412,0.232,1.972,0.697l-0.653,1.065c-0.165-0.135-0.37-0.245-0.614-0.33c-0.245-0.085-0.473-0.128-0.682-0.128
			c-0.185,0-0.33,0.034-0.436,0.101c-0.105,0.068-0.157,0.154-0.157,0.258c0,0.16,0.148,0.298,0.443,0.412l0.487,0.18
			c0.27,0.095,0.482,0.175,0.638,0.24c0.704,0.301,1.057,0.785,1.057,1.455c0,0.509-0.2,0.935-0.6,1.275
			C6.524,39.812,5.992,39.977,5.322,39.977z M11.882,37.346v-3.007h1.379v5.541h-1.057l-2.519-2.969v2.969H8.313v-5.541h1.005
			L11.882,37.346z M19.125,39.88h-1.439l-0.323-1.012h-1.762l-0.329,1.012h-1.448l2.025-5.541h1.305L19.125,39.88z M15.953,37.653
			h1.072L16.5,36.011L15.953,37.653z M19.702,34.339h2.204c0.705,0,1.227,0.185,1.567,0.555c0.345,0.365,0.518,0.822,0.518,1.372
			c0,0.545-0.177,0.995-0.533,1.35c-0.349,0.35-0.899,0.525-1.649,0.525h-0.704v1.739h-1.402V34.339z M21.104,36.881h0.772
			c0.215,0,0.38-0.059,0.498-0.176c0.118-0.118,0.176-0.269,0.176-0.454c0-0.18-0.058-0.33-0.176-0.45
			c-0.118-0.12-0.274-0.18-0.469-0.18h-0.802V36.881z M5.322,46.849c-0.925,0-1.676-0.32-2.257-0.96l0.705-1.027
			c0.465,0.465,0.989,0.698,1.574,0.698c0.174,0,0.322-0.037,0.442-0.109c0.12-0.072,0.181-0.171,0.181-0.296
			c0-0.174-0.15-0.317-0.45-0.427l-0.495-0.165c-0.355-0.13-0.589-0.225-0.704-0.285c-0.61-0.325-0.915-0.805-0.915-1.44
			c0-0.489,0.192-0.897,0.578-1.221c0.385-0.325,0.88-0.487,1.484-0.487c0.755,0,1.412,0.232,1.972,0.697l-0.653,1.065
			c-0.165-0.135-0.37-0.245-0.614-0.33c-0.245-0.085-0.473-0.128-0.682-0.128c-0.185,0-0.33,0.034-0.436,0.101
			c-0.105,0.068-0.157,0.154-0.157,0.258c0,0.16,0.148,0.298,0.443,0.412l0.487,0.18c0.27,0.095,0.482,0.175,0.638,0.24
			c0.704,0.301,1.057,0.785,1.057,1.455c0,0.509-0.2,0.935-0.6,1.275C6.524,46.685,5.992,46.849,5.322,46.849z M9.303,46.752v-4.191
			H7.766v-1.35h4.483v1.35H10.72v4.191H9.303z M12.842,44.6v-3.389h1.409v3.367c0,0.3,0.079,0.529,0.236,0.686
			c0.158,0.157,0.372,0.236,0.641,0.236c0.265,0,0.476-0.08,0.633-0.24s0.236-0.387,0.236-0.682v-3.367h1.417V44.6
			c0,0.395-0.063,0.742-0.191,1.039c-0.128,0.297-0.301,0.532-0.521,0.704c-0.22,0.172-0.463,0.3-0.727,0.383
			c-0.265,0.083-0.547,0.123-0.847,0.123s-0.581-0.041-0.844-0.123c-0.263-0.083-0.505-0.21-0.727-0.383
			c-0.222-0.172-0.397-0.407-0.525-0.704C12.906,45.342,12.842,44.995,12.842,44.6z M20.684,46.752H18.45v-5.541h2.257
			c0.86,0,1.534,0.247,2.025,0.742c0.489,0.5,0.735,1.177,0.735,2.032c0,0.854-0.248,1.529-0.743,2.024
			C22.238,46.505,21.558,46.752,20.684,46.752z M19.852,42.554v2.856h0.9c0.405,0,0.715-0.137,0.93-0.412
			c0.22-0.28,0.33-0.62,0.33-1.019c0-0.395-0.11-0.733-0.33-1.013c-0.215-0.274-0.525-0.412-0.93-0.412H19.852z M24.298,46.752
			v-5.541h1.41v5.541H24.298z M29.419,46.843c-0.826,0-1.518-0.275-2.078-0.825c-0.549-0.549-0.824-1.227-0.824-2.031
			c0-0.805,0.277-1.485,0.833-2.04c0.554-0.555,1.242-0.832,2.061-0.832c0.824,0,1.515,0.277,2.069,0.832
			c0.556,0.555,0.833,1.235,0.833,2.04c0,0.8-0.277,1.476-0.833,2.031C30.93,46.568,30.243,46.843,29.419,46.843z M29.41,45.455
			c0.411,0,0.755-0.14,1.035-0.42c0.28-0.28,0.419-0.632,0.419-1.057c-0.01-0.43-0.154-0.782-0.434-1.057
			c-0.28-0.28-0.62-0.42-1.02-0.42c-0.404,0-0.747,0.143-1.027,0.427c-0.28,0.28-0.419,0.63-0.419,1.05
			c0,0.425,0.139,0.777,0.419,1.057C28.663,45.315,29.006,45.455,29.41,45.455z"/>
	</g>
</g>
</svg>
